PathFileType	4	(X/Y/Z)	C:/Users/alexw/Dropbox/ABI/BIOMENG 771 Files/BIOMENG_771/KinematicsLab/Left.trc	
DataRate	CameraRate	NumFrames	NumMarkers	Units	OrigDataRate	OrigDataStartFrame	OrigNumFrames	
120.00	120.00	46	8	mm	120.00	746	1491	
Frame#	Time	RAsis			LAsis			RPsis			LPsis			LThighSuperior			LThighInferior			LThighLateral			LPatella			
		X1	Y1	Z1	X2	Y2	Z2	X3	Y3	Z3	X4	Y4	Z4	X5	Y5	Z5	X6	Y6	Z6	X7	Y7	Z7	X8	Y8	Z8	

746	6.208	-596.33246	108.05474	982.31134	-340.99850	163.21826	1047.29614	-535.08020	341.17880	1028.04504	-478.99338	354.28723	1040.92676	-267.05823	254.57675	878.89795	-212.11665	233.14034	639.08521	-265.70166	169.28670	740.62872	-219.49680	186.62877	544.91150 
747	6.217	-596.07025	108.56882	982.59967	-340.42047	163.14806	1047.03479	-534.24347	341.59711	1027.71375	-477.97098	354.51468	1040.48193	-267.30936	252.71533	877.35480	-214.72902	228.34846	637.13123	-267.49716	165.98553	740.07532	-223.89124	180.52298	543.65240 
748	6.225	-595.77179	109.07256	982.77191	-339.92267	162.96878	1046.75110	-533.02863	341.91449	1027.18542	-476.75076	354.79282	1039.88794	-267.24234	250.81514	875.73395	-217.67110	223.35448	635.16272	-269.20026	162.52991	739.52802	-228.42505	174.14761	542.35999 
749	6.233	-595.42694	109.41753	982.87634	-339.47855	162.73840	1046.47998	-532.12628	342.26639	1026.81091	-475.75067	354.81262	1039.34363	-267.24832	248.72873	874.31525	-220.74998	218.01024	633.17957	-271.00497	159.11314	738.88892	-232.97615	167.79947	541.15393 
750	6.242	-595.03235	109.91323	982.87006	-338.93463	162.41280	1046.16089	-531.09839	342.71762	1026.49023	-474.46881	354.90268	1038.65063	-267.11035	246.60927	872.78333	-223.55537	212.68349	631.31378	-272.82962	155.52826	738.30969	-237.50011	161.59386	540.14557 
751	6.250	-594.85175	110.24759	982.91010	-338.51266	161.83978	1045.81287	-529.88477	342.75113	1025.94580	-473.27136	354.85602	1037.95276	-266.63773	244.37616	871.75696	-226.43378	207.30203	629.86078	-274.76740	151.76382	737.79309	-241.86841	155.38914	539.18713 
752	6.258	-594.75739	110.65392	982.87061	-338.18127	161.16896	1045.51355	-528.89478	343.02097	1025.57434	-472.04074	354.62357	1037.35352	-266.93573	241.88242	870.36212	-229.33038	201.90923	628.39288	-276.99292	148.19713	737.25787	-245.91872	149.40244	538.44281 
753	6.267	-594.75623	110.91955	982.94495	-337.92908	160.32968	1045.26733	-527.65332	343.21747	1024.90662	-470.83298	354.42816	1036.78455	-266.93704	239.36462	869.21997	-232.17285	196.55280	627.12097	-279.14111	144.54369	736.78650	-249.52643	143.53348	538.00427 
754	6.275	-594.84167	111.20051	983.15704	-337.73462	159.41548	1045.00610	-526.58777	343.40564	1024.53455	-469.70419	354.35950	1036.15137	-267.00156	236.67793	868.16199	-234.83131	191.52710	626.07166	-281.24527	140.83699	736.45789	-253.15965	137.98254	537.42535 
755	6.283	-594.93671	111.38942	983.32819	-337.51968	158.56801	1044.65552	-525.66736	343.48145	1024.26245	-468.46927	354.14243	1035.40283	-267.35577	233.94751	866.88538	-237.48444	186.87120	624.85724	-283.47733	137.20140	736.06274	-256.65097	132.67400	536.84015 
756	6.292	-595.08411	111.67775	983.48102	-337.43875	157.65396	1044.23547	-524.20294	343.56061	1023.66107	-467.14627	353.99994	1034.85706	-267.60196	230.85797	865.85388	-240.09331	182.15749	623.72723	-285.74283	133.47504	735.50562	-260.13403	127.40254	536.33936 
757	6.300	-595.30225	111.89516	983.64600	-337.32556	156.49716	1043.90369	-523.06323	343.67444	1023.25482	-465.71844	353.53079	1034.15479	-267.71634	227.69426	864.81122	-242.73676	177.67882	622.50970	-287.85403	129.85109	734.99603	-263.58292	122.19206	535.85834 
758	6.308	-595.43329	112.11768	983.90289	-337.18018	155.34688	1043.50952	-521.69867	343.44482	1022.80377	-464.34131	353.12332	1033.49866	-268.09225	224.48492	863.66882	-245.34515	173.24205	621.25055	-289.64804	126.23577	734.54126	-267.39182	116.81513	535.57977 
759	6.317	-595.57983	112.26803	984.19989	-336.99426	154.38902	1043.22375	-520.27228	343.42331	1022.36896	-462.92661	352.94000	1032.85754	-268.82343	221.35274	862.69421	-248.00688	168.78119	620.16736	-291.58929	122.64467	734.03442	-271.42279	111.54648	535.18317 
760	6.325	-595.77966	112.56255	984.52362	-337.02737	153.17014	1042.87720	-519.02319	343.44080	1021.94128	-461.59039	352.68634	1032.38611	-268.95688	217.95811	861.70734	-250.73332	164.22942	619.33081	-293.31042	118.86455	733.81635	-275.35416	106.51469	534.89307 
761	6.333	-596.16327	112.78497	984.98828	-336.85291	152.05066	1042.62354	-517.62665	343.35501	1021.58685	-460.32388	352.24500	1031.74805	-269.36142	214.67346	860.84222	-253.64230	159.81459	618.33264	-294.97382	115.35770	733.59161	-279.64395	101.52538	534.68726 
762	6.342	-596.41602	113.08852	985.26697	-336.77173	151.00211	1042.32471	-516.47156	343.20966	1021.15729	-458.80051	351.83160	1031.13257	-269.76608	211.37042	860.08173	-256.54050	155.13795	617.53906	-296.68582	111.70408	733.50433	-283.75186	96.60178	534.54199 
763	6.350	-596.72064	113.33176	985.53223	-336.60745	149.71635	1042.14270	-515.19116	342.86404	1020.61206	-457.42169	351.37677	1030.57886	-270.22501	208.00787	859.25623	-259.28653	150.53065	616.83173	-298.45166	107.88142	733.37634	-288.14603	91.75640	534.38312 
764	6.358	-597.02643	113.60080	985.77368	-336.53784	148.48520	1041.85266	-514.06708	342.53268	1020.16876	-456.06964	350.90967	1029.99597	-270.57074	204.56407	858.50677	-262.17972	145.81848	616.17456	-300.56149	104.12959	733.14612	-292.45667	87.21701	534.08643 
765	6.367	-597.28607	113.87247	986.03168	-336.42761	147.34706	1041.52039	-513.14069	342.05585	1019.74115	-454.74860	350.36191	1029.38953	-271.16379	201.09831	857.79071	-265.00848	141.24977	615.60345	-302.54233	100.51718	733.06250	-296.49808	82.84180	534.16553 
766	6.375	-597.55554	114.09635	986.31177	-336.38541	145.94586	1041.37256	-511.84830	341.68594	1019.39746	-453.31970	349.84576	1028.83289	-271.67773	197.77411	857.23663	-267.90378	136.49614	615.08258	-304.76151	96.90725	732.96851	-300.53064	78.31209	534.06537 
767	6.383	-597.74707	114.14948	986.60010	-336.33264	144.62041	1041.12500	-510.70670	341.36948	1019.08527	-452.05603	349.20682	1028.34253	-272.24210	194.44911	856.68768	-270.63083	131.92879	614.61945	-307.29974	93.65179	732.79437	-304.24658	74.27250	534.05420 
768	6.392	-597.88306	114.27490	986.78162	-336.30161	143.31653	1040.96326	-509.49698	341.03702	1018.69257	-450.74509	348.59009	1027.92566	-272.72479	191.17354	856.11707	-273.19699	127.56036	614.24182	-309.79303	90.52971	732.52240	-307.85153	70.41526	534.00787 
769	6.400	-598.10266	114.34084	986.93488	-336.26782	141.71056	1040.79150	-508.23514	340.73621	1018.32056	-449.46851	347.87790	1027.48438	-273.19351	187.95914	855.58185	-275.61862	123.37978	613.87390	-312.59952	87.55534	732.25494	-311.59811	66.57786	533.93848 
770	6.408	-598.24768	114.48280	987.01672	-336.22501	140.34750	1040.57983	-506.93921	340.36533	1018.08130	-447.98434	347.13962	1027.02087	-273.69543	184.83360	855.07123	-277.98578	119.21889	613.44568	-315.35974	84.47258	731.91254	-314.84097	63.02464	533.86713 
771	6.417	-598.48285	114.57354	987.16547	-336.29132	138.74547	1040.47290	-505.64224	340.03979	1017.79504	-446.57239	346.45776	1026.56873	-274.18533	181.89601	854.55780	-280.27744	115.54127	613.07703	-318.15491	81.88422	731.62976	-317.91537	59.76145	533.74127 
772	6.425	-598.77051	114.70558	987.49091	-336.38177	137.33093	1040.21057	-504.31369	339.81769	1017.56580	-445.27628	345.67249	1026.16772	-274.61026	178.88263	854.10748	-282.31537	112.03870	612.73328	-320.79556	79.39664	731.46606	-320.92642	56.73475	533.58490 
773	6.433	-599.16083	114.84060	987.94635	-336.55542	135.67189	1040.10559	-502.90460	339.42319	1017.30359	-443.97446	344.89322	1025.81567	-274.95679	176.07332	853.73560	-284.16202	108.79746	612.43152	-323.32874	76.95807	731.26105	-323.69452	53.93488	533.64551 
774	6.442	-599.54053	115.00485	988.29321	-336.58795	134.26820	1039.94897	-501.63947	339.02795	1017.04333	-442.57471	344.12045	1025.43176	-275.29382	173.38593	853.31287	-286.03500	105.80727	612.07025	-325.64883	74.86239	731.15247	-326.42889	51.29636	533.57678 
775	6.450	-599.80627	115.20743	988.59955	-336.66879	132.85815	1039.69446	-500.34537	338.67877	1016.75055	-441.20346	343.31223	1025.06299	-275.43027	170.86211	852.98047	-287.59283	103.02098	611.81702	-327.77847	72.97275	730.99908	-328.92365	48.88213	533.52625 
776	6.458	-600.22009	115.45020	988.85657	-336.83679	131.31999	1039.49426	-498.99335	338.30627	1016.53284	-439.88489	342.52643	1024.71423	-275.53439	168.37044	852.68280	-289.13446	100.29794	611.51416	-329.67474	70.92933	730.72632	-330.91565	46.52966	533.51483 
777	6.467	-600.77930	115.78864	989.12073	-336.83432	129.95723	1039.22144	-497.68735	337.82516	1016.26117	-438.51266	341.70404	1024.28369	-275.74213	165.86769	852.36511	-290.44983	97.83585	611.18921	-331.39606	69.17264	730.50476	-333.01697	44.34042	533.39282 
778	6.475	-601.14783	116.02931	989.33856	-337.11819	128.40425	1038.88660	-496.51648	337.41583	1016.00867	-437.28918	340.89783	1023.90411	-275.73312	163.52655	851.93719	-291.78348	95.58311	610.77924	-333.03470	67.68494	730.16107	-334.89481	42.39925	533.18164 
779	6.483	-601.55505	116.24903	989.45251	-337.21555	127.06463	1038.54907	-495.23627	337.01743	1015.81183	-436.02826	340.14462	1023.50470	-275.80643	161.32155	851.50378	-292.79666	93.54836	610.35608	-334.35260	66.20358	729.77161	-336.55942	40.68995	532.95966 
780	6.492	-601.86206	116.39643	989.61353	-337.43616	125.55459	1038.23108	-494.00870	336.58975	1015.64374	-434.81747	339.43814	1023.20007	-275.95074	159.16116	851.10437	-293.92001	91.57435	609.85565	-335.77350	64.85819	729.31458	-338.07016	38.83256	532.71338 
781	6.500	-602.24048	116.53405	989.68732	-337.63535	124.23827	1037.82361	-492.97226	336.20157	1015.37671	-433.65338	338.65634	1022.79272	-275.93945	157.10947	850.71704	-294.95557	89.73383	609.37982	-336.92581	63.50881	728.76367	-339.50089	37.30077	532.39227 
782	6.508	-602.66406	116.64159	989.72198	-337.91193	122.71529	1037.49207	-491.87778	335.69498	1015.10712	-432.53055	337.91980	1022.45587	-276.11612	155.14726	850.26898	-295.95157	88.07649	608.84290	-337.78378	62.18351	728.28998	-340.88736	35.75431	532.06738 
783	6.517	-603.04248	116.72630	989.67682	-338.09354	121.28072	1037.12634	-490.78775	335.24872	1014.87903	-431.39459	337.16147	1022.06940	-276.09995	153.28178	849.80988	-296.86884	86.46301	608.36243	-338.42609	60.83419	727.76062	-342.09836	34.31461	531.69739 
784	6.525	-603.41034	116.75204	989.74866	-338.27734	119.97385	1036.75562	-489.72122	334.80737	1014.55713	-430.33469	336.38019	1021.68707	-276.21487	151.50784	849.53174	-297.64169	84.96909	607.80896	-338.78369	59.47264	727.40204	-343.47028	33.14514	531.39252 
785	6.533	-603.67963	116.84119	989.84387	-338.47610	118.66004	1036.41919	-488.67041	334.33710	1014.26733	-429.35962	335.65933	1021.37280	-276.38690	150.06752	849.13593	-298.51498	83.66653	607.28351	-338.93228	58.20531	726.78790	-345.14261	31.74602	530.82452 
786	6.542	-603.88953	116.87495	989.95721	-338.58014	117.44073	1036.11072	-487.79520	333.86557	1014.04761	-428.48727	334.93961	1021.04688	-276.43558	148.52963	848.76990	-299.27005	82.38129	606.74487	-339.04868	57.03742	726.36700	-346.89069	31.02529	530.31580 
787	6.550	-604.09296	116.91744	990.09778	-338.68051	116.34207	1035.89600	-486.93408	333.45844	1013.87018	-427.56995	334.15161	1020.75177	-276.42242	147.36127	848.37714	-300.00235	81.16182	606.25708	-338.79221	55.60330	725.92413	-348.67661	30.26567	529.88269 
788	6.558	-604.28845	116.97890	990.23969	-338.81082	115.08133	1035.73901	-486.08701	332.89243	1013.58801	-426.77298	333.43781	1020.46478	-276.44882	146.15909	848.00275	-300.76990	79.96117	605.80243	-338.50632	54.28654	725.48254	-349.88678	29.34980	529.62970 
789	6.567	-604.41290	117.02648	990.36841	-338.85632	114.06625	1035.58350	-485.34418	332.44904	1013.27441	-425.89304	332.68796	1020.13849	-276.30563	144.98366	847.69257	-301.39099	78.91276	605.46301	-338.25812	52.96838	725.10077	-351.30597	28.69281	529.07867 
790	6.575	-604.64685	116.99027	990.59796	-338.97000	112.91557	1035.50269	-484.50983	331.94244	1013.04376	-425.09637	331.99466	1019.82959	-276.21460	143.96223	847.49890	-301.93448	77.78552	605.26105	-337.71759	51.47868	724.82623	-352.42615	28.09747	528.55634 
791	6.583	-604.77271	116.90174	990.82709	-339.05954	111.96872	1035.39429	-483.75452	331.50809	1012.81061	-424.34836	331.34146	1019.52551	-276.06818	142.98076	847.23871	-302.54471	76.76176	604.99548	-337.22006	50.06298	724.65851	-353.69244	27.54592	527.94458 
